<svg xmlns="http://www.w3.org/2000/svg" width="48" height="33" stroke="none" stroke-linecap="round" stroke-linejoin="round" fill="#fff" fill-rule="nonzero"><path d="M44.5112 32.4653H2.981c-1.6225 0-2.9807-1.1975-2.9807-2.7438V2.9245C.0036 1.391 1.3366.149 2.981.1475h41.5302c1.6224 0 2.9806 1.2459 2.9806 2.7798v26.7596c-.0371 1.5837-1.3582 2.7798-2.9806 2.7798z" fill="#f2f2f2"/><path d="M5.9378 32.4653l17.7681-12.127.1129-.7032L5.4925 7.3572l-.0371 24.51z" fill="#221f1f" opacity=".1"/><g fill="#d44c3d"><path d="M2.981 32.4653c-1.6448 0-2.9807-1.1974-2.9807-2.7438V2.8886c0-1.5478 1.3359-1.8274 2.9807-1.8274s2.9806.3184 2.9806 1.8274V32.464z"/><path d="M2.9809 1.482c2.1123 0 2.528.5981 2.528 1.4065v29.1878h-2.528c-1.3953 0-2.5279-1.0549-2.5279-2.3575V2.8885C.4159 2.0579.8687 1.482 2.9809 1.482zm0-.3876c-1.6447.0014-2.9806.317-2.9806 1.7941v26.7956c-.0113.7405.2991 1.4537.8606 1.9772s1.3261.8132 2.12.8026h2.9807V2.8885c-.0238-1.5117-1.3211-1.7927-2.9807-1.7927zm41.5303.3876c1.9237 0 2.5279.3516 2.5279 1.3373v26.9368c0 1.3013-1.1311 2.3576-2.5279 2.3576h-2.528V2.8193c-.0371-1.0203.6042-1.3373 2.528-1.3373zm0-.3876c-1.6596 0-2.9807.2104-2.9807 1.7235v29.6806h2.9807c1.6595 0 2.9806-1.2459 2.9806-2.7797V2.7833c-.0371-1.5131-1.3582-1.6889-2.9806-1.6889z"/><path d="M44.5112 32.4653h-2.9807V2.8193c0-1.5477 1.3359-1.7235 2.9807-1.7235s2.9806.2104 2.9806 1.7235v26.9368c-.0348 1.5102-1.361 2.7156-2.9806 2.7092z"/></g><path d="M31.7988 32.4653L.2645 4.0652l1.6595.6326 21.969 14.7393 23.5973-16.161v26.48c-.0031.7331-.3194 1.4347-.8788 1.9496s-1.3159.8008-2.1019.7942z" fill="#221f1f" opacity=".08"/><g fill="#d44c3d"><path d="M23.6912 20.373L1.2829 5.2115c-1.336-.9137-1.6982-2.6719-.717-3.904S3.4308-.2055 4.7905.7096l18.9363 12.8399L42.7759.5364c1.336-.9136 3.1692-.6325 4.1489.6327.9797 1.2459.6784 2.9556-.6784 3.8693z"/><path d="M44.5111.4271c.7927 0 1.5839.3516 2.0753.9857.7926 1.0548.564 2.5333-.5642 3.3224L23.6911 19.8815 1.547 4.8958C.4159 4.1206.1131 2.6075.891 1.5733 1.3436.9407 2.1378.5531 3.0032.5531c.564 0 1.094.1412 1.5081.4568l18.8963 12.8053.2642.1412.2643-.1412L42.9659.8119c.4898-.2464.9797-.3876 1.5468-.3876zm0-.4222c-.6041 0-1.2469.1412-1.7367.526L23.7267 13.548 4.7533.6735C4.2634.3219 3.6222.1475 2.9809.1475 2.0383.1821 1.0957.5697.5287 1.3103c-.9426 1.2459-.5641 2.9556.7541 3.8693l22.4083 15.1933L46.2464 5.0342c1.3201-.9012 1.6219-2.6228.6783-3.8692C46.3206.4257 45.4166.0021 44.5111.0021z"/></g></svg>